<svg width="44" height="44" viewBox="0 0 44 44" fill="none" xmlns="http://www.w3.org/2000/svg">
<rect width="44" height="44" rx="22" fill="#0E2E87"/>
<path d="M12 18.2501H32L30.9563 29.7264C30.8998 30.3475 30.6132 30.9251 30.1528 31.3458C29.6923 31.7665 29.0912 31.9999 28.4675 32.0001H15.5325C14.9088 31.9999 14.3077 31.7665 13.8472 31.3458C13.3868 30.9251 13.1002 30.3475 13.0438 29.7264L12 18.2501Z" stroke="white" stroke-width="1.5" stroke-linejoin="round"/>
<path d="M16.9993 20.75V17C16.9993 15.6739 17.5261 14.4021 18.4637 13.4645C19.4014 12.5268 20.6732 12 21.9993 12C23.3254 12 24.5971 12.5268 25.5348 13.4645C26.4725 14.4021 26.9993 15.6739 26.9993 17V20.75" stroke="white" stroke-width="1.5" stroke-linecap="round"/>
</svg>
