<svg width="28" height="28" viewBox="0 0 28 28" fill="none" xmlns="http://www.w3.org/2000/svg">
<path d="M4 10.25H24L22.9563 21.7263C22.8998 22.3474 22.6132 22.925 22.1528 23.3457C21.6923 23.7664 21.0912 23.9998 20.4675 24H7.5325C6.9088 23.9998 6.30771 23.7664 5.84725 23.3457C5.38678 22.925 5.1002 22.3474 5.04375 21.7263L4 10.25Z" stroke="black" stroke-width="1.5" stroke-linejoin="round"/>
<path d="M8.99927 12.75V9C8.99927 7.67392 9.52605 6.40215 10.4637 5.46447C11.4014 4.52678 12.6732 4 13.9993 4C15.3254 4 16.5971 4.52678 17.5348 5.46447C18.4725 6.40215 18.9993 7.67392 18.9993 9V12.75" stroke="black" stroke-width="1.5" stroke-linecap="round"/>
</svg>
