<svg width="32" height="32" viewBox="0 0 32 32" fill="none" xmlns="http://www.w3.org/2000/svg">
<rect width="32" height="32" rx="16" fill="#0E2E87"/>
<path fill-rule="evenodd" clip-rule="evenodd" d="M12 22.8318V9.64767C12 8.72407 12 6.99442 16.0259 7.00001C19.9982 7.00561 19.9982 8.59346 19.9982 9.68685V15.7173H16.3742V8.47777C16.3742 8.47777 16.4171 8.05982 16.0366 8.05982C15.6562 8.05982 15.6562 8.35649 15.6562 8.53935V23.3002C15.6562 23.3002 15.6133 23.845 15.9562 23.845C15.9562 23.845 16.376 23.8804 16.376 23.3356V16.3928H20V22.524C20 23.9215 19.3248 25 15.9455 25C13.3342 25.0056 12.0018 24.3842 12.0018 22.8318H12Z" fill="white"/>
</svg>
