<svg width="24" height="24" viewBox="0 0 24 24" fill="none" xmlns="http://www.w3.org/2000/svg">
<path d="M20.4375 2H3.5625C2.69917 2 2 2.7 2 3.5625V20.4375C2 21.3008 2.7 22 3.5625 22H20.4375C21.3008 22 22 21.3 22 20.4375V3.5625C22 2.69917 21.3 2 20.4375 2ZM12 17.625C11.5067 17.625 11.0256 17.5917 10.5567 17.525C10.0883 17.855 7.37917 19.7575 7.12333 19.7933C7.12333 19.7933 7.01917 19.8342 6.93 19.7817C6.84083 19.7292 6.85667 19.5908 6.85667 19.5908C6.88333 19.4075 7.55917 17.0758 7.68333 16.6467C5.39583 15.5133 3.875 13.5058 3.875 11.2192C3.875 7.68083 7.5125 4.8125 12 4.8125C16.4875 4.8125 20.125 7.68083 20.125 11.2192C20.125 14.7575 16.4875 17.625 12 17.625ZM8.70833 10.2225H7.97667V13.0075C7.97667 13.2542 7.76667 13.455 7.5075 13.455C7.24833 13.455 7.03917 13.255 7.03917 13.0075V10.2225H6.3075C6.19168 10.2139 6.08339 10.1619 6.00435 10.0768C5.92531 9.99172 5.88139 9.87988 5.88139 9.76375C5.88139 9.64762 5.92531 9.53578 6.00435 9.45069C6.08339 9.3656 6.19168 9.31356 6.3075 9.305H8.7075C8.82332 9.31356 8.93161 9.3656 9.01065 9.45069C9.08968 9.53578 9.13361 9.64762 9.13361 9.76375C9.13361 9.87988 9.08968 9.99172 9.01065 10.0768C8.93161 10.1619 8.82332 10.2139 8.7075 10.2225M17.8633 12.6867C17.9007 12.7357 17.9279 12.7917 17.9435 12.8513C17.9591 12.911 17.9627 12.9731 17.9542 13.0342C17.9456 13.095 17.925 13.1536 17.8937 13.2065C17.8624 13.2595 17.8209 13.3057 17.7717 13.3425C17.6906 13.404 17.5917 13.4374 17.49 13.4375C17.4173 13.4378 17.3455 13.421 17.2804 13.3886C17.2153 13.3562 17.1586 13.309 17.115 13.2508L16.0158 11.795L15.8533 11.9575V12.98C15.8531 13.1042 15.8037 13.2233 15.716 13.3112C15.6282 13.3991 15.5092 13.4487 15.385 13.4492C15.2606 13.4492 15.1412 13.3997 15.0532 13.3118C14.9653 13.2238 14.9158 13.1044 14.9158 12.98V9.77333C14.9209 9.65243 14.9725 9.53818 15.0599 9.45443C15.1472 9.37069 15.2636 9.32394 15.3846 9.32394C15.5056 9.32394 15.6219 9.37069 15.7093 9.45443C15.7966 9.53818 15.8482 9.65243 15.8533 9.77333V10.7817L17.1617 9.47333C17.2308 9.40547 17.324 9.36772 17.4208 9.36833C17.5375 9.36833 17.6558 9.41917 17.7442 9.5075C17.8243 9.58657 17.8731 9.69193 17.8817 9.80417C17.8859 9.85643 17.8788 9.90899 17.861 9.95829C17.8432 10.0076 17.815 10.0525 17.7783 10.09L16.71 11.1575L17.8633 12.6867ZM10.905 9.76833C10.8258 9.54333 10.5858 9.31167 10.28 9.305C9.975 9.31167 9.735 9.54333 9.65583 9.7675L8.535 12.7183C8.3925 13.16 8.51667 13.325 8.64583 13.385C8.73957 13.4265 8.84082 13.4483 8.94333 13.4492C9.13917 13.4492 9.28833 13.37 9.33333 13.2425L9.56583 12.6342H10.995L11.2275 13.2425C11.2725 13.37 11.4217 13.4492 11.6175 13.4492C11.7201 13.4481 11.8213 13.4259 11.915 13.3842C12.0442 13.325 12.1683 13.1608 12.0258 12.7175L10.905 9.76833ZM9.8125 11.8042L10.2808 10.4742L10.7483 11.8042H9.8125ZM14.7333 12.9567C14.7303 13.0731 14.6814 13.1836 14.5972 13.2641C14.5131 13.3446 14.4006 13.3887 14.2842 13.3867H12.7808C12.6643 13.3889 12.5515 13.345 12.4672 13.2644C12.3829 13.1838 12.3339 13.0732 12.3308 12.9567V9.77333C12.3308 9.515 12.5458 9.305 12.81 9.305C13.0742 9.305 13.2883 9.515 13.2883 9.77333V12.5275H14.2842C14.5317 12.5275 14.7342 12.72 14.7342 12.9567" fill="white"/>
</svg>
