<svg width="28" height="28" viewBox="0 0 28 28" fill="none" xmlns="http://www.w3.org/2000/svg">
<path d="M2.00043 10.1275C2.00037 8.97228 2.32139 7.84055 2.92643 6.8629C3.53148 5.88525 4.39591 5.10151 5.41999 4.60211C6.44408 4.1027 7.5861 3.90798 8.7143 4.04039C9.8425 4.17281 10.9109 4.62697 11.7963 5.35049L11.8264 5.38375L17.303 10.9543C17.363 11.0152 17.4341 11.0636 17.5124 11.0965C17.5907 11.1295 17.6747 11.1465 17.7594 11.1464C17.8442 11.1464 17.9281 11.1294 18.0064 11.0964C18.0847 11.0634 18.1559 11.015 18.2158 10.954C18.2757 10.8931 18.3232 10.8207 18.3556 10.741C18.3881 10.6613 18.4047 10.576 18.4047 10.4897C18.4047 10.4035 18.388 10.3182 18.3555 10.2385C18.3231 10.1589 18.2755 10.0865 18.2156 10.0255L14.3864 6.13039L14.7168 5.79471C15.8465 4.64558 17.3786 4 18.9762 4C20.5738 4 22.106 4.64558 23.2357 5.79471C24.3654 6.94384 25 8.5024 25 10.1275C25 11.7526 24.3654 13.3112 23.2357 14.4603L14.108 23.7435C14.0281 23.8248 13.9332 23.8893 13.8288 23.9333C13.7244 23.9773 13.6124 24 13.4994 24C13.3864 24 13.2745 23.9773 13.17 23.9333C13.0656 23.8893 12.9707 23.8248 12.8908 23.7435L9.84899 20.6493L9.82231 20.6221L3.76444 14.4595C3.20505 13.8905 2.76131 13.215 2.45856 12.4716C2.15582 11.7281 2 10.9313 2 10.1266" fill="#1338A0"/>
</svg>
