<svg width="22" height="22" viewBox="0 0 22 22" fill="none" xmlns="http://www.w3.org/2000/svg">
<path d="M6.17963 4.63716C5.75776 4.21529 5.07263 4.21529 4.65076 4.63716C4.22888 5.05904 4.22888 5.74416 4.65076 6.16604L9.28801 10.7999L4.65413 15.4372C4.23226 15.859 4.23226 16.5442 4.65413 16.966C5.07601 17.3879 5.76113 17.3879 6.18301 16.966L10.8169 12.3288L15.4541 16.9627C15.876 17.3845 16.5611 17.3845 16.983 16.9627C17.4049 16.5408 17.4049 15.8557 16.983 15.4338L12.3458 10.7999L16.9796 6.16266C17.4015 5.74079 17.4015 5.05566 16.9796 4.63379C16.5578 4.21191 15.8726 4.21191 15.4508 4.63379L10.8169 9.27104L6.17963 4.63716Z" fill="black"/>
</svg>
