<svg width="44" height="44" viewBox="0 0 44 44" fill="none" xmlns="http://www.w3.org/2000/svg">
<rect width="44" height="44" rx="22" fill="#0E2E87"/>
<path d="M8.45117 18.2969V16.6016H16.5586V18.2969H13.5234V26.5H11.4863V18.2969H8.45117ZM26.457 21.5508C26.457 24.7773 24.4473 26.6367 21.8359 26.6367C19.1973 26.6367 17.2012 24.7637 17.2012 21.5508C17.2012 18.3242 19.1973 16.4648 21.8359 16.4648C24.4473 16.4648 26.457 18.3242 26.457 21.5508ZM24.3652 21.5508C24.3652 19.4316 23.3672 18.2832 21.8359 18.2832C20.3047 18.2832 19.293 19.4316 19.293 21.5508C19.293 23.6699 20.3047 24.8184 21.8359 24.8184C23.3672 24.8184 24.3652 23.6699 24.3652 21.5508ZM27.9336 26.5V16.6016H31.8164C34.0723 16.6016 35.3574 17.9824 35.3574 19.9375C35.3574 21.9199 34.0449 23.2734 31.7617 23.2734H29.9844V26.5H27.9336ZM29.9844 21.6191H31.4336C32.6504 21.6191 33.2383 20.9355 33.2383 19.9375C33.2383 18.9531 32.6504 18.2832 31.4336 18.2832H29.9844V21.6191Z" fill="white"/>
</svg>
