<svg width="44" height="44" viewBox="0 0 44 44" fill="none" xmlns="http://www.w3.org/2000/svg">
<rect width="44" height="44" rx="22" fill="#0E2E87"/>
<path d="M13.9317 29.5549L11.7544 31.6916C11.4315 32.0084 11.0584 32.0811 10.6351 31.9098C10.2117 31.7384 10 31.427 10 30.9756V14.0263C10 13.4487 10.1972 12.9668 10.5916 12.5806C10.986 12.1944 11.4771 12.0008 12.0649 12H30.9364C31.5242 12 32.0153 12.1935 32.4097 12.5806C32.8041 12.9676 33.0008 13.4495 33 14.0263V27.5298C33 28.1066 32.8032 28.5885 32.4097 28.9756C32.0161 29.3626 31.525 29.5557 30.9364 29.5549H13.9317ZM13.3861 28.301H30.9364C31.1323 28.301 31.3125 28.2207 31.4769 28.0602C31.6413 27.8997 31.7231 27.7229 31.7222 27.5298V14.0251C31.7222 13.8328 31.6404 13.656 31.4769 13.4947C31.3133 13.3333 31.1332 13.2531 30.9364 13.2539H12.0636C11.8677 13.2539 11.6875 13.3342 11.5231 13.4947C11.3587 13.6552 11.2769 13.832 11.2778 14.0251V30.3637L13.3861 28.301ZM17.0789 21.4546C17.2748 21.2623 17.3728 21.0366 17.3728 20.7774C17.3728 20.5183 17.2748 20.2926 17.0789 20.1003C16.883 19.9081 16.653 19.8119 16.3889 19.8119C16.1248 19.8119 15.8948 19.9081 15.6989 20.1003C15.503 20.2926 15.405 20.5183 15.405 20.7774C15.405 21.0366 15.503 21.2623 15.6989 21.4546C15.8948 21.6468 16.1248 21.743 16.3889 21.743C16.653 21.743 16.883 21.6468 17.0789 21.4546ZM22.19 21.4546C22.3859 21.2623 22.4839 21.0366 22.4839 20.7774C22.4839 20.5183 22.3859 20.2926 22.19 20.1003C21.9941 19.9081 21.7641 19.8119 21.5 19.8119C21.2359 19.8119 21.0059 19.9081 20.81 20.1003C20.6141 20.2926 20.5161 20.5183 20.5161 20.7774C20.5161 21.0366 20.6141 21.2623 20.81 21.4546C21.0059 21.6468 21.2359 21.743 21.5 21.743C21.7641 21.743 21.9941 21.6468 22.19 21.4546ZM27.3011 21.4546C27.497 21.2623 27.595 21.0366 27.595 20.7774C27.595 20.5183 27.497 20.2926 27.3011 20.1003C27.1052 19.9081 26.8752 19.8119 26.6111 19.8119C26.347 19.8119 26.117 19.9081 25.9211 20.1003C25.7252 20.2926 25.6272 20.5183 25.6272 20.7774C25.6272 21.0366 25.7252 21.2623 25.9211 21.4546C26.117 21.6468 26.347 21.743 26.6111 21.743C26.8752 21.743 27.1052 21.6468 27.3011 21.4546Z" fill="white"/>
</svg>
