<svg width="34" height="28" viewBox="0 0 34 28" fill="none" xmlns="http://www.w3.org/2000/svg">
<path d="M22.9962 17.3631C22.8087 17.5506 22.5544 17.6559 22.2892 17.6559C22.024 17.6559 21.7697 17.5506 21.5822 17.3631L16.6322 12.4131L11.6822 17.3631C11.4927 17.5396 11.2421 17.6356 10.9832 17.631C10.7243 17.6265 10.4773 17.5217 10.2941 17.3387C10.1109 17.1557 10.0058 16.9088 10.001 16.6499C9.99614 16.391 10.0919 16.1403 10.2681 15.9506L15.9244 10.2928C16.1119 10.1053 16.3662 10 16.6314 10C16.8966 10 17.1509 10.1053 17.3384 10.2928L22.9962 15.9491C23.1837 16.1366 23.2891 16.3909 23.2891 16.6561C23.2891 16.9213 23.1837 17.1756 22.9962 17.3631Z" fill="black"/>
</svg>
