<svg width="34" height="28" viewBox="0 0 34 28" fill="none" xmlns="http://www.w3.org/2000/svg">
<path d="M10.2928 10.2928C10.4803 10.1053 10.7347 10 10.9998 10C11.265 10 11.5193 10.1053 11.7069 10.2928L16.6569 15.2428L21.6069 10.2928C21.7964 10.1164 22.047 10.0203 22.3059 10.0249C22.5647 10.0295 22.8118 10.1343 22.995 10.3173C23.1782 10.5002 23.2832 10.7472 23.2881 11.006C23.2929 11.2649 23.1972 11.5156 23.0209 11.7053L17.3647 17.3631C17.1772 17.5506 16.9228 17.6559 16.6577 17.6559C16.3925 17.6559 16.1382 17.5506 15.9506 17.3631L10.2928 11.7069C10.1053 11.5193 10 11.265 10 10.9998C10 10.7347 10.1053 10.4803 10.2928 10.2928Z" fill="black"/>
</svg>
