<svg width="42" height="24" viewBox="0 0 42 24" fill="none" xmlns="http://www.w3.org/2000/svg">
<path d="M28.6254 16.6175C28.3855 16.8624 28.0601 17 27.7209 17C27.3816 17 27.0563 16.8624 26.8163 16.6175L20.4837 10.152L14.151 16.6175C13.9086 16.848 13.588 16.9734 13.2568 16.9675C12.9256 16.9615 12.6096 16.8246 12.3752 16.5856C12.1408 16.3466 12.0064 16.0241 12.0002 15.6859C11.994 15.3478 12.1165 15.0204 12.342 14.7726L19.5782 7.38247C19.8181 7.13758 20.1434 7 20.4827 7C20.8219 7 21.1473 7.13758 21.3872 7.38247L28.6254 14.7705C28.8653 15.0155 29 15.3477 29 15.694C29 16.0404 28.8653 16.3726 28.6254 16.6175Z" fill="black"/>
</svg>
