<svg width="48" height="48" viewBox="0 0 48 48" fill="none" xmlns="http://www.w3.org/2000/svg">
<rect x="0.5" y="0.5" width="47" height="47" stroke="black"/>
<path d="M9.48 23.5801C8.68921 22.7946 8.06268 21.8595 7.6369 20.8294C7.21112 19.7993 6.99462 18.6947 7 17.5801C7 15.3258 7.89553 13.1638 9.48959 11.5697C11.0837 9.97565 13.2457 9.08011 15.5 9.08011C18.66 9.08011 21.42 10.8001 22.88 13.3601H25.12C25.8622 12.0582 26.9362 10.9763 28.2326 10.2245C29.5289 9.47264 31.0014 9.07779 32.5 9.08011C34.7543 9.08011 36.9163 9.97565 38.5104 11.5697C40.1045 13.1638 41 15.3258 41 17.5801C41 19.9201 40 22.0801 38.52 23.5801L24 38.0801L9.48 23.5801ZM39.92 25.0001C41.82 23.0801 43 20.4801 43 17.5801C43 14.7953 41.8938 12.1246 39.9246 10.1555C37.9555 8.18636 35.2848 7.08011 32.5 7.08011C29 7.08011 25.9 8.78011 24 11.4201C23.0302 10.0731 21.7532 8.97675 20.275 8.22197C18.7967 7.46719 17.1598 7.07575 15.5 7.08011C12.7152 7.08011 10.0445 8.18636 8.07538 10.1555C6.10625 12.1246 5 14.7953 5 17.5801C5 20.4801 6.18 23.0801 8.08 25.0001L24 40.9201L39.92 25.0001Z" fill="black"/>
</svg>
