<svg width="24" height="22" viewBox="0 0 24 22" fill="none" xmlns="http://www.w3.org/2000/svg">
<path d="M23.2497 7.34475C23.2536 9.07584 22.5867 10.7411 21.389 11.991C18.6428 14.8384 15.9788 17.8073 13.1315 20.55C12.4778 21.1688 11.4417 21.1463 10.8173 20.4994L2.61047 11.9921C0.129844 9.42038 0.129844 5.26913 2.61047 2.6985C3.19675 2.08312 3.9019 1.59321 4.68316 1.25847C5.46442 0.923728 6.30552 0.751125 7.15547 0.751125C8.00542 0.751125 8.84652 0.923728 9.62778 1.25847C10.409 1.59321 11.1142 2.08312 11.7005 2.6985L11.9997 3.00675L12.2978 2.6985C12.8848 2.08396 13.5901 1.59453 14.3712 1.25967C15.1523 0.924814 15.993 0.751445 16.8428 0.75C18.5528 0.75 20.1875 1.452 21.3878 2.6985C22.586 3.9482 23.2533 5.6135 23.2497 7.34475Z" stroke="black" stroke-width="1.5" stroke-linejoin="round"/>
</svg>
