<svg width="49" height="49" viewBox="0 0 49 49" fill="none" xmlns="http://www.w3.org/2000/svg">
<path d="M14.025 29.2572L10.2887 42.3238C10.0437 43.1405 10.35 44.0388 11.0442 44.5288C11.7383 45.0392 12.6775 45.0597 13.3717 44.5697L24.4987 37.1584L35.6258 44.5697C35.9707 44.8036 36.3794 44.9253 36.7961 44.9179C37.2127 44.9106 37.6169 44.7747 37.9533 44.5288C38.6475 44.0184 38.9537 43.1405 38.7087 42.3238L34.9725 29.2572L44.2417 20.9272C44.8542 20.3759 45.0788 19.5184 44.8133 18.763C44.5479 17.9872 43.8537 17.4563 43.0371 17.3747L31.3996 16.4559L26.3567 5.30841C26.1955 4.95056 25.9345 4.64686 25.6049 4.43381C25.2753 4.22076 24.8912 4.10742 24.4987 4.10742C24.1063 4.10742 23.7222 4.22076 23.3926 4.43381C23.063 4.64686 22.802 4.95056 22.6408 5.30841L17.5979 16.4559L5.96041 17.3747C5.14375 17.4359 4.44958 17.9872 4.18416 18.763C3.91875 19.5388 4.14333 20.3963 4.75583 20.9272L14.025 29.2572Z" fill="#EF5C18"/>
</svg>
