<svg width="117" height="100" viewBox="0 0 117 100" fill="none" xmlns="http://www.w3.org/2000/svg">
<path fill-rule="evenodd" clip-rule="evenodd" d="M94.8807 69.4193C94.8807 69.4193 101.358 69.5368 104.695 69.147V71.3257C104.695 71.3257 104.38 70.0975 101.877 70.3752L97.7261 70.8398V76.2386H104.299V77.4348H97.694V83.5813L100.785 83.8696C101.379 83.9123 103.722 84.2594 104.834 82.556L104.647 83.7521C104.647 83.7521 104.62 84.8041 103.246 84.8041H94.5598C94.5598 84.8041 95.3407 84.2114 95.3407 82.5987V73.7555C95.3407 73.7555 95.4156 71.4325 94.8807 69.4247V69.4193Z" fill="white"/>
<path fill-rule="evenodd" clip-rule="evenodd" d="M79.8352 69.2803H83.0604V81.0552C83.0604 81.0552 83.0336 84.2325 86.7027 84.2325C90.3718 84.2325 91.051 81.13 91.051 79.2235V71.8489C91.051 71.8489 91.1687 70.0759 90.0669 69.2803H92.6984C92.6984 69.2803 92.4523 70.2629 92.4523 71.5445V80.5052C92.4523 80.5052 92.9711 85.3273 86.4994 85.3273C80.0278 85.3273 80.3861 81.6479 80.3861 80.4197V71.9076C80.3861 71.9076 80.4289 70.5672 79.8352 69.2803Z" fill="white"/>
<path fill-rule="evenodd" clip-rule="evenodd" d="M41.6523 69.1787H44.8454L53.0233 80.19L53.7186 71.2293C53.7186 71.2293 54.0074 69.9584 52.7344 69.2214H54.8418V84.6329H53.1677L44.1501 72.7566L43.5564 82.0644C43.5564 82.0644 43.2515 83.7358 44.3533 84.6329H42.2728V71.3308C42.2728 71.3308 42.2567 70.2788 41.6523 69.1787Z" fill="white"/>
<path fill-rule="evenodd" clip-rule="evenodd" d="M57.7512 69.2642H61.0726C61.0726 69.2642 60.6073 71.6458 60.6073 74.663V82.1498C60.6073 82.1498 60.5806 84.2698 60.7678 84.7504H57.9919C57.9919 84.7504 58.1951 83.2926 58.1951 81.7066V75.3572C58.1951 75.3572 58.3984 71.7366 57.7458 69.2695L57.7512 69.2642Z" fill="white"/>
<path fill-rule="evenodd" clip-rule="evenodd" d="M36.3625 69.2642H39.684C39.684 69.2642 39.224 71.6458 39.224 74.663V82.1498C39.224 82.1498 39.1973 84.2698 39.3952 84.7504H36.5925C36.5925 84.7504 36.8118 83.2926 36.8118 81.7066V75.3572C36.8118 75.3572 37.0151 71.7366 36.3625 69.2695V69.2642Z" fill="white"/>
<path fill-rule="evenodd" clip-rule="evenodd" d="M25.7566 69.3765H28.848C28.848 69.3765 28.5859 74.4282 28.5859 76.0142V83.4476C28.5859 83.4476 30.0728 83.8535 31.9662 83.8535C33.8596 83.8535 34.6083 83.25 35.2448 82.2247C35.2448 82.2247 35.1753 83.8001 34.4212 84.6919H25.8421C25.8421 84.6919 26.1577 82.8015 26.1577 80.5533V73.6539C26.1577 73.6539 26.2433 71.2295 25.7512 69.3818L25.7566 69.3765Z" fill="white"/>
<path fill-rule="evenodd" clip-rule="evenodd" d="M19.2688 68.8854C19.2688 68.8854 22.0126 68.9281 23.5904 69.6223V71.438C23.5904 71.438 22.403 70.0389 19.3865 70.0389C16.3699 70.0389 13.4924 72.2016 13.4924 77.0077C13.4924 81.8138 16.1934 84.1367 19.4025 84.1367C22.6116 84.1367 23.9113 81.8565 23.9113 81.8565C23.9113 81.8565 24.275 84.0513 22.3496 84.7562C22.3496 84.7562 20.4829 85.1033 19.4721 85.1033C18.4612 85.1033 11.0054 85.5946 11.0054 77.0931C11.0054 68.5917 17.8996 68.8801 19.2742 68.8801L19.2688 68.8854Z" fill="white"/>
<path fill-rule="evenodd" clip-rule="evenodd" d="M11.2299 89.4233H105V90.0001H11.2299V89.4233Z" fill="white"/>
<path fill-rule="evenodd" clip-rule="evenodd" d="M11.2299 64.9175H105V65.5102H11.2299V64.9175Z" fill="white"/>
<path fill-rule="evenodd" clip-rule="evenodd" d="M46.3483 55.3108V17.5776C46.3483 14.9343 46.3483 9.98402 58.4038 10C70.2989 10.0161 70.2989 14.5605 70.2989 17.6898V34.949H59.4468V14.2294C59.4468 14.2294 59.5751 13.0332 58.4359 13.0332C57.2967 13.0332 57.2967 13.8823 57.2967 14.4056V56.6511C57.2967 56.6511 57.1683 58.2104 58.1952 58.2104C58.1952 58.2104 59.4521 58.3119 59.4521 56.7526V36.8821H70.3042V54.4297C70.3042 58.4294 68.2825 61.516 58.1631 61.516C50.3436 61.532 46.3536 59.7537 46.3536 55.3108H46.3483Z" fill="white"/>
<path fill-rule="evenodd" clip-rule="evenodd" d="M72.5079 84.8736C75.9309 83.9764 78.4768 80.7884 78.4768 77.0076C78.4768 72.5486 76.4123 68.896 70.5878 68.896C64.7633 68.896 62.6987 72.5486 62.6987 77.0076C62.6987 81.4666 64.5493 84.9003 70.0957 85.1032C72.5667 85.8241 73.6097 86.9936 74.9094 87.5863C76.4551 88.2645 77.8992 88.1364 77.8992 88.1364V87.4155C76.4551 87.4155 75.9309 86.4489 74.9094 85.6265C74.3157 85.1512 73.3048 84.9323 72.5079 84.8736ZM65.266 77.0824C65.266 73.1894 66.7529 69.9961 70.6413 69.9961C74.5296 69.9961 76.0058 73.1841 76.0058 77.0824C76.0058 80.9806 74.3157 84.1527 70.6413 84.1527C66.9668 84.1527 65.266 80.9806 65.266 77.0824Z" fill="white"/>
</svg>
