<svg width="24" height="24" viewBox="0 0 24 24" fill="none" xmlns="http://www.w3.org/2000/svg">
<path d="M21.4509 8.93909L21.2214 7.91649C20.9759 6.80604 20.3587 5.81262 19.472 5.10047C18.5853 4.38833 17.4822 4.00011 16.3449 4H7.13383C5.99591 4.00091 4.89222 4.38927 4.00446 5.10114C3.11671 5.81301 2.49782 6.80595 2.24969 7.91649L2.02709 8.93909C1.87404 9.61387 2.38882 10.2608 3.08447 10.2608H6.994C7.52269 10.2608 7.94704 9.83647 7.94704 9.30778V8.82083C7.94704 8.45909 8.23921 8.16692 8.60095 8.16692H14.8694C15.2312 8.16692 15.5233 8.45909 15.5233 8.82083V9.30778C15.5233 9.83647 15.9477 10.2608 16.4764 10.2608H20.3866C21.0892 10.2608 21.604 9.61387 21.4509 8.93909Z" fill="#CA0B4A"/>
<path d="M2.69565 8.86914C2.51115 8.86914 2.33421 8.94243 2.20375 9.07289C2.07329 9.20335 2 9.38029 2 9.56479C2 9.74928 2.07329 9.92622 2.20375 10.0567C2.33421 10.1871 2.51115 10.2604 2.69565 10.2604H6.86953C7.05402 10.2604 7.23096 10.1871 7.36142 10.0567C7.49188 9.92622 7.56517 9.74928 7.56517 9.56479C7.56517 9.38029 7.49188 9.20335 7.36142 9.07289C7.23096 8.94243 7.05402 8.86914 6.86953 8.86914H2.69565ZM16.6086 8.86914C16.4241 8.86914 16.2471 8.94243 16.1167 9.07289C15.9862 9.20335 15.9129 9.38029 15.9129 9.56479C15.9129 9.74928 15.9862 9.92622 16.1167 10.0567C16.2471 10.1871 16.4241 10.2604 16.6086 10.2604H20.7825C20.967 10.2604 21.1439 10.1871 21.2744 10.0567C21.4048 9.92622 21.4781 9.74928 21.4781 9.56479C21.4781 9.38029 21.4048 9.20335 21.2744 9.07289C21.1439 8.94243 20.967 8.86914 20.7825 8.86914H16.6086Z" fill="#990838"/>
<path d="M20.1703 12.6962L17.6242 9.30144C17.4225 9.03014 17.1025 8.87014 16.7616 8.87014H16.1286C16.0103 8.87014 15.9129 8.77275 15.9129 8.65449V6.99885C15.9129 6.88059 15.8155 6.7832 15.6973 6.7832H14.7373C14.619 6.7832 14.5216 6.88059 14.5216 6.99885V8.65449C14.5216 8.77275 14.4242 8.87014 14.306 8.87014H9.17212C9.05386 8.87014 8.95647 8.77275 8.95647 8.65449V6.99885C8.95647 6.88059 8.85908 6.7832 8.74082 6.7832H7.78082C7.66256 6.7832 7.56517 6.88059 7.56517 6.99885V8.65449C7.56517 8.77275 7.46778 8.87014 7.34952 8.87014H6.71648C6.37562 8.87014 6.05562 9.03014 5.84693 9.3084L3.30782 12.6962C2.45897 13.8255 2 15.2 2 16.6127V18.9153C2 19.5135 2.48695 20.0005 3.08521 20.0005H20.3929C20.9912 20.0005 21.4781 19.5135 21.4781 18.9153V16.6127C21.4781 15.2005 21.019 13.8231 20.1703 12.6962Z" fill="#F92F60"/>
<path d="M20.3929 17.9126H3.08521C2.48695 17.9126 2 17.4674 2 16.8691V18.9143C2 19.5126 2.48695 19.9995 3.08521 19.9995H20.3929C20.9912 19.9995 21.4781 19.5126 21.4781 18.9143V16.8691C21.4781 17.4674 20.9912 17.9126 20.3929 17.9126Z" fill="#990838"/>
<path d="M10.1382 12.3473H9.18103C9.15202 12.348 9.12317 12.3429 9.09616 12.3323C9.06915 12.3217 9.0445 12.3058 9.02367 12.2856C9.00283 12.2655 8.98621 12.2413 8.97477 12.2147C8.96333 12.188 8.9573 12.1593 8.95703 12.1303V11.1731C8.95703 11.0541 9.05442 10.9561 9.17407 10.9561H10.1313C10.2495 10.9561 10.3476 11.0534 10.3476 11.1731V12.1303C10.3488 12.1584 10.3442 12.1864 10.3342 12.2127C10.3242 12.239 10.309 12.263 10.2895 12.2833C10.27 12.3036 10.2467 12.3197 10.2208 12.3307C10.1949 12.3417 10.1671 12.3474 10.1389 12.3473M12.2259 12.3473H11.2687C11.2397 12.348 11.2108 12.3429 11.1838 12.3323C11.1568 12.3217 11.1321 12.3058 11.1113 12.2856C11.0905 12.2655 11.0738 12.2413 11.0624 12.2147C11.051 12.188 11.0449 12.1593 11.0447 12.1303V11.1731C11.0447 11.0541 11.1421 10.9561 11.2617 10.9561H12.2189C12.3372 10.9561 12.436 11.0534 12.436 11.1731V12.1303C12.4371 12.1585 12.4325 12.1867 12.4224 12.2131C12.4123 12.2394 12.397 12.2635 12.3774 12.2838C12.3577 12.3041 12.3342 12.3202 12.3081 12.3311C12.2821 12.342 12.2541 12.3476 12.2259 12.3473ZM13.3556 12.3473H14.3128C14.3411 12.3476 14.369 12.342 14.3951 12.3311C14.4211 12.3202 14.4447 12.3041 14.4643 12.2838C14.484 12.2635 14.4993 12.2394 14.5094 12.2131C14.5194 12.1867 14.524 12.1585 14.5229 12.1303V11.1731C14.5225 11.1156 14.4996 11.0607 14.4589 11.02C14.4183 10.9794 14.3633 10.9564 14.3059 10.9561H13.3486C13.2911 10.9562 13.236 10.9792 13.1954 11.0198C13.1547 11.0605 13.1318 11.1156 13.1316 11.1731V12.1303C13.1316 12.2493 13.229 12.3473 13.3556 12.3473ZM10.1389 14.4343H9.18173C9.15272 14.4349 9.12387 14.4298 9.09685 14.4192C9.06984 14.4086 9.0452 14.3928 9.02436 14.3726C9.00352 14.3524 8.9869 14.3283 8.97546 14.3016C8.96402 14.2749 8.958 14.2463 8.95773 14.2172V13.26C8.95773 13.1411 9.05512 13.043 9.17477 13.043H10.132C10.2502 13.043 10.3483 13.1404 10.3483 13.26V14.2172C10.3494 14.2453 10.3449 14.2734 10.3349 14.2997C10.3249 14.326 10.3097 14.35 10.2902 14.3702C10.2707 14.3905 10.2474 14.4066 10.2215 14.4176C10.1956 14.4286 10.1671 14.4343 10.1389 14.4343ZM11.2694 14.4343H12.2266C12.2548 14.4345 12.2828 14.429 12.3088 14.4181C12.3349 14.4071 12.3584 14.391 12.3781 14.3707C12.3977 14.3505 12.413 14.3264 12.4231 14.3C12.4332 14.2736 12.4378 14.2455 12.4367 14.2172V13.26C12.4363 13.2026 12.4133 13.1476 12.3727 13.107C12.3321 13.0663 12.2771 13.0434 12.2196 13.043H11.2624C11.2049 13.0432 11.1498 13.0661 11.1091 13.1068C11.0685 13.1474 11.0455 13.2025 11.0454 13.26V14.2172C11.0454 14.3362 11.1428 14.4343 11.2694 14.4343ZM14.3135 14.4343H13.3563C13.3273 14.4349 13.2984 14.4298 13.2714 14.4192C13.2444 14.4086 13.2198 14.3928 13.1989 14.3726C13.1781 14.3524 13.1615 14.3283 13.15 14.3016C13.1386 14.2749 13.1326 14.2463 13.1323 14.2172V13.26C13.1323 13.1411 13.2297 13.043 13.3486 13.043H14.3066C14.4248 13.043 14.5236 13.1404 14.5236 13.26V14.2172C14.5247 14.2455 14.5201 14.2736 14.51 14.3C14.5 14.3264 14.4847 14.3505 14.465 14.3707C14.4454 14.391 14.4218 14.4071 14.3958 14.4181C14.3697 14.429 14.3418 14.4345 14.3135 14.4343ZM9.18242 16.5212H10.1396C10.2579 16.5212 10.356 16.4238 10.349 16.3042V15.347C10.3488 15.2896 10.326 15.2346 10.2855 15.194C10.245 15.1533 10.1901 15.1303 10.1327 15.1299H9.17546C9.11796 15.1301 9.06286 15.153 9.0222 15.1937C8.98153 15.2344 8.95861 15.2895 8.95842 15.347V16.3042C8.95842 16.4231 9.05581 16.5212 9.18242 16.5212ZM12.2266 16.5212H11.2694C11.2404 16.5219 11.2115 16.5168 11.1845 16.5062C11.1575 16.4956 11.1328 16.4797 11.112 16.4595C11.0912 16.4393 11.0745 16.4152 11.0631 16.3885C11.0517 16.3619 11.0456 16.3332 11.0454 16.3042V15.347C11.0454 15.228 11.1428 15.1299 11.2624 15.1299H12.2196C12.3379 15.1299 12.4367 15.2273 12.4367 15.347V16.3042C12.4378 16.3324 12.4332 16.3606 12.4231 16.3869C12.413 16.4133 12.3977 16.4374 12.3781 16.4577C12.3584 16.478 12.3349 16.4941 12.3088 16.505C12.2828 16.5159 12.2548 16.5214 12.2266 16.5212ZM13.3563 16.5212H14.3135C14.3418 16.5214 14.3697 16.5159 14.3958 16.505C14.4218 16.4941 14.4454 16.478 14.465 16.4577C14.4847 16.4374 14.5 16.4133 14.51 16.3869C14.5201 16.3606 14.5247 16.3324 14.5236 16.3042V15.347C14.5232 15.2895 14.5002 15.2345 14.4596 15.1939C14.419 15.1533 14.364 15.1303 14.3066 15.1299H13.3493C13.2918 15.1301 13.2367 15.153 13.1961 15.1937C13.1554 15.2344 13.1325 15.2895 13.1323 15.347V16.3042C13.1323 16.4231 13.2297 16.5212 13.3563 16.5212Z" fill="#E6E6E6"/>
</svg>
