<svg width="117" height="100" viewBox="0 0 117 100" fill="none" xmlns="http://www.w3.org/2000/svg">
<path fill-rule="evenodd" clip-rule="evenodd" d="M94.8807 69.4193C94.8807 69.4193 101.358 69.5368 104.695 69.1469V71.3257C104.695 71.3257 104.38 70.0975 101.877 70.3752L97.7261 70.8398V76.2386H104.299V77.4348H97.694V83.5812L100.785 83.8696C101.379 83.9123 103.722 84.2594 104.834 82.5559L104.647 83.7521C104.647 83.7521 104.62 84.8041 103.246 84.8041H94.5598C94.5598 84.8041 95.3407 84.2114 95.3407 82.5986V73.7554C95.3407 73.7554 95.4156 71.4325 94.8807 69.4246V69.4193Z" fill="#0E2E87"/>
<path fill-rule="evenodd" clip-rule="evenodd" d="M79.8352 69.2805H83.0604V81.0554C83.0604 81.0554 83.0336 84.2327 86.7027 84.2327C90.3718 84.2327 91.051 81.1301 91.051 79.2237V71.849C91.051 71.849 91.1687 70.0761 90.0669 69.2805H92.6984C92.6984 69.2805 92.4523 70.263 92.4523 71.5447V80.5053C92.4523 80.5053 92.9711 85.3274 86.4994 85.3274C80.0278 85.3274 80.3861 81.6481 80.3861 80.4199V71.9078C80.3861 71.9078 80.4289 70.5674 79.8352 69.2805Z" fill="#0E2E87"/>
<path fill-rule="evenodd" clip-rule="evenodd" d="M41.6523 69.179H44.8454L53.0233 80.1902L53.7186 71.2296C53.7186 71.2296 54.0074 69.9586 52.7344 69.2217H54.8418V84.6332H53.1677L44.1501 72.7568L43.5564 82.0646C43.5564 82.0646 43.2515 83.7361 44.3533 84.6332H42.2728V71.331C42.2728 71.331 42.2567 70.279 41.6523 69.179Z" fill="#0E2E87"/>
<path fill-rule="evenodd" clip-rule="evenodd" d="M57.7512 69.2644H61.0726C61.0726 69.2644 60.6073 71.6461 60.6073 74.6632V82.15C60.6073 82.15 60.5806 84.27 60.7678 84.7507H57.9919C57.9919 84.7507 58.1951 83.2928 58.1951 81.7068V75.3574C58.1951 75.3574 58.3984 71.7368 57.7458 69.2697L57.7512 69.2644Z" fill="#0E2E87"/>
<path fill-rule="evenodd" clip-rule="evenodd" d="M36.3625 69.2644H39.684C39.684 69.2644 39.224 71.6461 39.224 74.6632V82.15C39.224 82.15 39.1973 84.27 39.3952 84.7507H36.5925C36.5925 84.7507 36.8118 83.2928 36.8118 81.7068V75.3574C36.8118 75.3574 37.0151 71.7368 36.3625 69.2697V69.2644Z" fill="#0E2E87"/>
<path fill-rule="evenodd" clip-rule="evenodd" d="M25.7566 69.3765H28.848C28.848 69.3765 28.5859 74.4283 28.5859 76.0143V83.4477C28.5859 83.4477 30.0728 83.8535 31.9662 83.8535C33.8596 83.8535 34.6083 83.2501 35.2448 82.2248C35.2448 82.2248 35.1753 83.8001 34.4212 84.6919H25.8421C25.8421 84.6919 26.1577 82.8015 26.1577 80.5533V73.6539C26.1577 73.6539 26.2433 71.2295 25.7512 69.3819L25.7566 69.3765Z" fill="#0E2E87"/>
<path fill-rule="evenodd" clip-rule="evenodd" d="M19.2688 68.8852C19.2688 68.8852 22.0126 68.9279 23.5904 69.6222V71.4378C23.5904 71.4378 22.403 70.0387 19.3865 70.0387C16.3699 70.0387 13.4924 72.2014 13.4924 77.0075C13.4924 81.8136 16.1934 84.1365 19.4025 84.1365C22.6116 84.1365 23.9113 81.8563 23.9113 81.8563C23.9113 81.8563 24.275 84.0511 22.3496 84.756C22.3496 84.756 20.4829 85.1031 19.4721 85.1031C18.4612 85.1031 11.0054 85.5944 11.0054 77.093C11.0054 68.5915 17.8996 68.8799 19.2742 68.8799L19.2688 68.8852Z" fill="#0E2E87"/>
<path fill-rule="evenodd" clip-rule="evenodd" d="M11.23 89.4233H105V90H11.23V89.4233Z" fill="#0E2E87"/>
<path fill-rule="evenodd" clip-rule="evenodd" d="M11.23 64.9175H105V65.5103H11.23V64.9175Z" fill="#0E2E87"/>
<path fill-rule="evenodd" clip-rule="evenodd" d="M46.3484 55.3107V17.5776C46.3484 14.9342 46.3484 9.98396 58.4039 9.99998C70.299 10.016 70.299 14.5604 70.299 17.6897V34.9489H59.4469V14.2293C59.4469 14.2293 59.5753 13.0332 58.436 13.0332C57.2968 13.0332 57.2968 13.8822 57.2968 14.4056V56.6511C57.2968 56.6511 57.1684 58.2104 58.1953 58.2104C58.1953 58.2104 59.4522 58.3118 59.4522 56.7525V36.882H70.3044V54.4296C70.3044 58.4293 68.2826 61.5159 58.1632 61.5159C50.3437 61.5319 46.3537 59.7537 46.3537 55.3107H46.3484Z" fill="#0E2E87"/>
<path fill-rule="evenodd" clip-rule="evenodd" d="M72.5079 84.8735C75.9309 83.9764 78.4768 80.7883 78.4768 77.0075C78.4768 72.5486 76.4123 68.8959 70.5878 68.8959C64.7633 68.8959 62.6987 72.5486 62.6987 77.0075C62.6987 81.4665 64.5493 84.9002 70.0957 85.1031C72.5667 85.824 73.6097 86.9935 74.9094 87.5863C76.4551 88.2645 77.8992 88.1363 77.8992 88.1363V87.4154C76.4551 87.4154 75.9309 86.4488 74.9094 85.6265C74.3157 85.1512 73.3048 84.9322 72.5079 84.8735ZM65.266 77.0823C65.266 73.1894 66.7529 69.996 70.6413 69.996C74.5296 69.996 76.0058 73.184 76.0058 77.0823C76.0058 80.9806 74.3157 84.1526 70.6413 84.1526C66.9668 84.1526 65.266 80.9806 65.266 77.0823Z" fill="#0E2E87"/>
</svg>
