<svg width="110" height="110" viewBox="0 0 110 110" fill="none" xmlns="http://www.w3.org/2000/svg">
<rect width="110" height="110" rx="55" fill="#CDCDCD"/>
<path d="M55.0013 77.0998C56.3539 77.0998 57.6511 77.6372 58.6075 78.5936C59.5639 79.55 60.1013 80.8472 60.1013 82.1998C60.1013 83.5524 59.5639 84.8496 58.6075 85.8061C57.6511 86.7625 56.3539 87.2998 55.0013 87.2998C53.6487 87.2998 52.3515 86.7625 51.395 85.8061C50.4386 84.8496 49.9013 83.5524 49.9013 82.1998C49.9013 80.8472 50.4386 79.55 51.395 78.5936C52.3515 77.6372 53.6487 77.0998 55.0013 77.0998ZM54.8857 19.2998C58.4081 19.2998 61.2165 22.2238 61.0805 25.7462L59.8021 63.8738C59.7368 65.0976 59.2047 66.2497 58.3153 67.0928C57.426 67.936 56.2472 68.406 55.0217 68.406C53.7962 68.406 52.6174 67.936 51.728 67.0928C50.8387 66.2497 50.3066 65.0976 50.2413 63.8738L48.6773 25.7462C48.6424 24.911 48.777 24.0773 49.0732 23.2956C49.3694 22.5138 49.8209 21.8002 50.4004 21.1977C50.98 20.5953 51.6757 20.1165 52.4454 19.7903C53.2151 19.4641 54.0497 19.2973 54.8857 19.2998Z" fill="white"/>
</svg>
