<svg width="53" height="30" viewBox="0 0 53 30" fill="none" xmlns="http://www.w3.org/2000/svg">
<rect x="0.5" y="0.5" width="52" height="29" rx="14.5" fill="white"/>
<rect x="0.5" y="0.5" width="52" height="29" rx="14.5" stroke="#808080"/>
<path d="M9.74531 14.2384C9.73532 14.1234 9.74936 14.0075 9.78653 13.8981C9.8237 13.7888 9.88319 13.6884 9.96124 13.6032C10.0393 13.5181 10.1342 13.4501 10.2399 13.4036C10.3456 13.3571 10.4598 13.333 10.5753 13.333H12.1666C12.3876 13.333 12.5995 13.4208 12.7558 13.5771C12.9121 13.7334 12.9999 13.9453 12.9999 14.1663V22.083C12.9999 22.304 12.9121 22.516 12.7558 22.6723C12.5995 22.8285 12.3876 22.9163 12.1666 22.9163H11.2641C11.0555 22.9164 10.8545 22.8382 10.7007 22.6973C10.547 22.5563 10.4517 22.3629 10.4336 22.1551L9.74531 14.2384ZM15.4999 13.9059C15.4999 13.5576 15.7166 13.2459 16.0311 13.0976C16.7182 12.7734 17.8886 12.1222 18.4166 11.2418C19.097 10.1068 19.2253 8.05634 19.2461 7.58676C19.2491 7.52092 19.2474 7.45509 19.2561 7.39009C19.3691 6.57634 20.9395 7.52676 21.5416 8.53176C21.8686 9.07676 21.9103 9.79301 21.8761 10.3526C21.8391 10.9509 21.6636 11.5288 21.4916 12.103L21.1249 13.3268H25.6486C25.7774 13.3267 25.9044 13.3566 26.0197 13.4139C26.135 13.4712 26.2354 13.5545 26.3131 13.6571C26.3908 13.7598 26.4437 13.8791 26.4676 14.0056C26.4915 14.1321 26.4857 14.2624 26.4507 14.3863L24.2132 22.3097C24.1638 22.4844 24.0587 22.6383 23.9138 22.7478C23.769 22.8573 23.5923 22.9165 23.4107 22.9163H16.3332C16.1122 22.9163 15.9003 22.8285 15.744 22.6723C15.5877 22.516 15.4999 22.304 15.4999 22.083V13.9059Z" stroke="#808080" stroke-width="2" stroke-linecap="round" stroke-linejoin="round"/>
<path d="M39.9375 20.1562C39.0677 20.1562 38.3203 19.9297 37.6953 19.4766C37.0755 19.0234 36.6016 18.362 36.2734 17.4922C35.9453 16.6172 35.7812 15.5677 35.7812 14.3438C35.7812 13.1302 35.9453 12.0885 36.2734 11.2188C36.6068 10.3438 37.0859 9.67708 37.7109 9.21875C38.3359 8.76042 39.0781 8.53125 39.9375 8.53125C40.7969 8.53125 41.5391 8.76042 42.1641 9.21875C42.7891 9.67708 43.2656 10.3438 43.5938 11.2188C43.9271 12.0885 44.0938 13.1302 44.0938 14.3438C44.0938 15.5677 43.9297 16.6146 43.6016 17.4844C43.2734 18.3542 42.7969 19.0182 42.1719 19.4766C41.5469 19.9297 40.8021 20.1562 39.9375 20.1562ZM39.9375 18.6719C40.4479 18.6719 40.8854 18.5078 41.25 18.1797C41.6146 17.8464 41.8932 17.3568 42.0859 16.7109C42.2786 16.0651 42.375 15.276 42.375 14.3438C42.375 13.4167 42.276 12.6276 42.0781 11.9766C41.8854 11.3203 41.6068 10.8255 41.2422 10.4922C40.8776 10.1536 40.4427 9.98438 39.9375 9.98438C39.4323 9.98438 38.9974 10.1536 38.6328 10.4922C38.2682 10.8255 37.987 11.3203 37.7891 11.9766C37.5964 12.6276 37.5 13.4167 37.5 14.3438C37.5 15.276 37.5964 16.0651 37.7891 16.7109C37.9818 17.3568 38.2604 17.8464 38.625 18.1797C38.9896 18.5078 39.4271 18.6719 39.9375 18.6719Z" fill="#808080"/>
</svg>
