<svg width="22" height="22" viewBox="0 0 22 22" fill="none" xmlns="http://www.w3.org/2000/svg">
<path d="M17.6399 18.9L11.97 13.23C11.52 13.59 11.0025 13.875 10.4175 14.085C9.83245 14.295 9.20995 14.4 8.54995 14.4C6.91495 14.4 5.53135 13.8336 4.39915 12.7008C3.26695 11.568 2.70055 10.1844 2.69995 8.55001C2.69935 6.91561 3.26575 5.53201 4.39915 4.39921C5.53255 3.26641 6.91615 2.70001 8.54995 2.70001C10.1838 2.70001 11.5677 3.26641 12.7017 4.39921C13.8357 5.53201 14.4018 6.91561 14.4 8.55001C14.4 9.21001 14.295 9.83251 14.085 10.4175C13.875 11.0025 13.59 11.52 13.23 11.97L18.9 17.64L17.6399 18.9ZM8.54995 12.6C9.67495 12.6 10.6314 12.2064 11.4192 11.4192C12.207 10.632 12.6006 9.67561 12.6 8.55001C12.5994 7.42441 12.2058 6.46831 11.4192 5.68171C10.6326 4.89511 9.67615 4.50121 8.54995 4.50001C7.42375 4.49881 6.46765 4.89271 5.68165 5.68171C4.89565 6.47071 4.50175 7.42681 4.49995 8.55001C4.49815 9.67321 4.89205 10.6296 5.68165 11.4192C6.47125 12.2088 7.42735 12.6024 8.54995 12.6Z" fill="black"/>
</svg>
