<svg width="36" height="36" viewBox="0 0 36 36" fill="none" xmlns="http://www.w3.org/2000/svg">
<path d="M29.4 31.3008L19.95 21.8508C19.2 22.4508 18.3375 22.9258 17.3625 23.2758C16.3875 23.6258 15.35 23.8008 14.25 23.8008C11.525 23.8008 9.219 22.8568 7.332 20.9688C5.445 19.0808 4.501 16.7748 4.5 14.0508C4.499 11.3268 5.443 9.02078 7.332 7.13278C9.221 5.24478 11.527 4.30078 14.25 4.30078C16.973 4.30078 19.2795 5.24478 21.1695 7.13278C23.0595 9.02078 24.003 11.3268 24 14.0508C24 15.1508 23.825 16.1883 23.475 17.1633C23.125 18.1383 22.65 19.0008 22.05 19.7508L31.5 29.2008L29.4 31.3008ZM14.25 20.8008C16.125 20.8008 17.719 20.1448 19.032 18.8328C20.345 17.5208 21.001 15.9268 21 14.0508C20.999 12.1748 20.343 10.5813 19.032 9.27028C17.721 7.95928 16.127 7.30278 14.25 7.30078C12.373 7.29878 10.7795 7.95528 9.4695 9.27028C8.1595 10.5853 7.503 12.1788 7.5 14.0508C7.497 15.9228 8.1535 17.5168 9.4695 18.8328C10.7855 20.1488 12.379 20.8048 14.25 20.8008Z" fill="black"/>
</svg>
