<svg width="301" height="100" viewBox="0 0 301 100" fill="none" xmlns="http://www.w3.org/2000/svg">
<g clip-path="url(#clip0_3030_8917)">
<path fill-rule="evenodd" clip-rule="evenodd" d="M9.17285 10V11.7365H293V10H9.17285Z" fill="#0E2E87"/>
<path fill-rule="evenodd" clip-rule="evenodd" d="M9.17285 88.2637V90.0002H293V88.2637H9.17285Z" fill="#0E2E87"/>
<path fill-rule="evenodd" clip-rule="evenodd" d="M196.253 72.8181C208.76 67.7153 213.208 61.074 213.208 48.0351C213.208 32.0564 206.581 24.2271 189.398 24.2271C174.835 24.2271 166.35 32.483 166.35 47.3801C166.35 60.7541 171.133 69.2232 180.7 72.483C184.173 73.6863 188.195 72.483 195.476 76.7175C206.566 83.1303 206.566 83.237 209.384 83.237C211.014 83.237 211.882 82.582 211.882 81.7137C211.882 80.0839 208.729 81.7137 204.814 76.9308C203.398 75.1943 201.006 73.8843 196.878 72.9095L196.223 72.8028L196.253 72.8181ZM189.748 27.5934C200.183 27.5934 205.728 35.2095 205.728 48.7967C205.728 62.3839 200.838 70.32 189.855 70.32C179.969 70.32 173.662 62.9323 173.662 48.9034C173.662 34.8744 179.862 27.5934 189.748 27.5934Z" fill="#0E2E87"/>
<path fill-rule="evenodd" clip-rule="evenodd" d="M46.3727 25.2169C40.5079 24.4553 35.7246 23.8003 29.7379 23.8003C15.6167 23.8003 8 32.1781 8 48.0349C8 64.8818 17.1248 73.5794 33.333 73.5794C38.1163 73.5794 42.2445 72.9244 44.3162 71.7363C46.7078 70.4263 48.0179 65.75 48.0179 65.3235C48.0179 64.5619 47.9113 64.3487 47.698 64.3487C47.043 64.3487 41.8332 69.9998 33.6681 69.9998C22.9134 69.9998 16.5002 61.9572 16.5002 48.1567C16.5002 34.3563 22.5935 27.5017 33.8966 27.5017C43.4631 27.5017 45.5349 31.3098 46.6164 31.3098C46.9363 31.3098 47.0582 31.2032 47.0582 30.9899C47.0582 30.3349 46.5098 27.517 46.4032 25.7653V25.2169H46.3727Z" fill="#0E2E87"/>
<path fill-rule="evenodd" clip-rule="evenodd" d="M102.888 25.2018C104.732 33.351 104.96 34.9809 104.96 50.1979C104.96 59.5506 104.747 67.5932 104.518 73.6709V74.3259H111.693C108.982 70.8529 108.875 70.4112 108.875 66.6031L109.743 35.6206L138.108 74.3107H142.343L141.794 25.1865H135.381C137.879 28.3396 137.986 28.5529 138.092 32.8027L136.676 59.3221L111.678 25.1865H102.873L102.888 25.2018Z" fill="#0E2E87"/>
<path fill-rule="evenodd" clip-rule="evenodd" d="M218.768 25.1867C219.641 35.9103 220.078 42.978 220.078 46.3901C220.078 50.7313 219.865 53.8844 219.865 57.0374C219.865 70.0763 224.328 75.4076 237.916 75.4076C253.348 75.4076 256.181 70.0763 256.181 55.7275V25.1867H249.448C250.865 28.0199 251.733 29.7564 251.733 32.681L251.291 49.8478C251.291 70.1677 248.031 71.7975 239.013 71.7975C227.497 71.7975 227.375 64.8364 227.375 49.6193C227.375 45.0496 227.817 32.6658 228.578 25.598V25.1562H218.799L218.768 25.1867Z" fill="#0E2E87"/>
<path fill-rule="evenodd" clip-rule="evenodd" d="M262.579 25.2017C263.889 36.8391 264.102 39.8704 264.102 50.4111C264.102 54.3207 263.63 62.0029 262.686 73.4576V73.8993C268.779 73.3509 272.466 73.1377 275.512 73.1377C280.95 73.1377 284.21 73.8993 287.15 73.8993C291.172 73.8993 292.802 72.8178 292.802 67.0448V66.603C290.837 68.8879 288.78 70.3045 285.414 70.3045C281.499 70.3045 276.289 69.5429 271.612 68.568L271.064 68.4614L271.719 50.3045H290.959C290.746 49.223 290.746 48.9945 290.746 48.3547C290.746 47.8064 290.745 47.4865 290.852 46.7249L290.959 46.2832H271.719V30.0912C278.346 29.6495 286.175 28.9031 288.354 28.9031C289.664 28.9031 289.771 29.0097 292.375 31.188L292.589 31.4012L291.827 25.2017H262.579Z" fill="#0E2E87"/>
<path fill-rule="evenodd" clip-rule="evenodd" d="M52.6641 25.2017C53.639 33.5642 54.1874 39.8704 54.1874 55.194C54.1874 60.9519 53.9741 65.7348 53.5324 73.8993V74.341C58.5289 74.0212 61.2556 73.7927 64.6222 73.7927C69.9539 73.7927 70.2738 74.2344 74.402 74.2344C77.6619 74.2344 79.2919 73.3662 79.627 73.0311C79.8403 72.9244 81.6988 69.7714 81.6988 67.5931C81.6988 66.8315 81.3789 66.7249 81.1504 66.7249C80.3887 66.7249 79.0786 70.533 74.5239 70.533C70.7155 70.533 68.4305 69.4515 62.6723 69.4515H62.0173C62.0173 47.9282 62.0173 36.8391 62.5657 25.6434V25.2017H52.6793H52.6641Z" fill="#0E2E87"/>
<path fill-rule="evenodd" clip-rule="evenodd" d="M85.6138 25.2017C86.5887 38.0273 86.8172 42.3685 86.8172 52.4827C86.8172 61.0737 86.7106 63.4652 86.1622 73.8993V74.341H94.6471C94.2054 64.9884 94.0987 58.9107 94.0987 48.37C94.0987 46.2679 94.3171 38.6975 94.7538 25.6586V25.2169H85.629L85.6138 25.2017Z" fill="#0E2E87"/>
<path fill-rule="evenodd" clip-rule="evenodd" d="M151.787 25.2017C152.762 37.159 152.991 42.5969 152.991 52.1628C152.991 60.7538 152.777 68.568 152.336 73.8993V74.341H160.82C160.501 64.7752 160.272 58.1491 160.272 48.5832C160.272 45.6434 160.272 45.5368 160.927 25.6434V25.2017H151.802H151.787Z" fill="#0E2E87"/>
</g>
<defs>
<clipPath id="clip0_3030_8917">
<rect width="285" height="80" fill="white" transform="translate(8 10)"/>
</clipPath>
</defs>
</svg>
