<svg width="30" height="30" viewBox="0 0 30 30" fill="none" xmlns="http://www.w3.org/2000/svg">
<path d="M27.5002 11.0775C27.5045 13.0009 26.7635 14.8512 25.4327 16.24C22.3814 19.4038 19.4214 22.7025 16.2577 25.75C15.5314 26.4375 14.3802 26.4125 13.6864 25.6938L4.56768 16.2413C1.81143 13.3838 1.81143 8.77125 4.56768 5.915C5.2191 5.23125 6.0026 4.6869 6.87066 4.31497C7.73873 3.94303 8.67328 3.75125 9.61768 3.75125C10.5621 3.75125 11.4966 3.94303 12.3647 4.31497C13.2328 4.6869 14.0162 5.23125 14.6677 5.915L15.0002 6.2575L15.3314 5.915C15.9836 5.23218 16.7673 4.68837 17.6351 4.3163C18.503 3.94424 19.4372 3.75161 20.3814 3.75C22.2814 3.75 24.0977 4.53 25.4314 5.915C26.7627 7.30356 27.5041 9.15389 27.5002 11.0775Z" stroke="black" stroke-width="1.5" stroke-linejoin="round"/>
</svg>
