<svg width="30" height="30" viewBox="0 0 30 30" fill="none" xmlns="http://www.w3.org/2000/svg">
<path d="M4 12.375H25.4286L24.3103 24.671C24.2498 25.3365 23.9427 25.9554 23.4494 26.4061C22.956 26.8568 22.312 27.1069 21.6437 27.1072H7.78482C7.11657 27.1069 6.47255 26.8568 5.97919 26.4061C5.48584 25.9554 5.17878 25.3365 5.1183 24.671L4 12.375Z" stroke="black" stroke-width="1.5" stroke-linejoin="round"/>
<path d="M9.35645 12.375V8.35715C9.35645 6.93634 9.92086 5.57373 10.9255 4.56907C11.9302 3.56441 13.2928 3 14.7136 3C16.1344 3 17.497 3.56441 18.5017 4.56907C19.5063 5.57373 20.0707 6.93634 20.0707 8.35715V12.375" stroke="black" stroke-width="1.5" stroke-linecap="round"/>
</svg>
