<svg width="19" height="19" viewBox="0 0 19 19" fill="none" xmlns="http://www.w3.org/2000/svg">
<path d="M5.32141 3.99412C4.95813 3.63084 4.36816 3.63084 4.00488 3.99412C3.6416 4.3574 3.6416 4.94737 4.00488 5.31065L7.99807 9.30093L4.00779 13.2941C3.64451 13.6574 3.64451 14.2474 4.00779 14.6106C4.37107 14.9739 4.96104 14.9739 5.32432 14.6106L9.3146 10.6175L13.3078 14.6077C13.6711 14.971 14.261 14.971 14.6243 14.6077C14.9876 14.2445 14.9876 13.6545 14.6243 13.2912L10.6311 9.30093L14.6214 5.30774C14.9847 4.94446 14.9847 4.35449 14.6214 3.99121C14.2581 3.62793 13.6682 3.62793 13.3049 3.99121L9.3146 7.9844L5.32141 3.99412Z" fill="white"/>
</svg>
