<svg width="26" height="26" viewBox="0 0 26 26" fill="none" xmlns="http://www.w3.org/2000/svg">
<path d="M4.33301 9.75H21.6663L20.7618 19.6961C20.7128 20.2344 20.4645 20.735 20.0654 21.0996C19.6663 21.4642 19.1454 21.6665 18.6048 21.6667H7.39451C6.85397 21.6665 6.33302 21.4642 5.93395 21.0996C5.53488 20.735 5.28651 20.2344 5.23759 19.6961L4.33301 9.75Z" stroke="black" stroke-width="1.5" stroke-linejoin="round"/>
<path d="M8.66602 11.9173V8.66732C8.66602 7.51805 9.12256 6.41585 9.93522 5.60319C10.7479 4.79053 11.8501 4.33398 12.9993 4.33398C14.1486 4.33398 15.2508 4.79053 16.0635 5.60319C16.8761 6.41585 17.3327 7.51805 17.3327 8.66732V11.9173" stroke="black" stroke-width="1.5" stroke-linecap="round"/>
</svg>
