<svg width="22" height="22" viewBox="0 0 22 22" fill="none" xmlns="http://www.w3.org/2000/svg">
<path d="M6.17927 4.63814C5.75739 4.21627 5.07227 4.21627 4.65039 4.63814C4.22852 5.06002 4.22852 5.74514 4.65039 6.16702L9.28764 10.8009L4.65377 15.4381C4.23189 15.86 4.23189 16.5451 4.65377 16.967C5.07564 17.3889 5.76077 17.3889 6.18264 16.967L10.8165 12.3298L15.4538 16.9636C15.8756 17.3855 16.5608 17.3855 16.9826 16.9636C17.4045 16.5418 17.4045 15.8566 16.9826 15.4348L12.3454 10.8009L16.9793 6.16364C17.4011 5.74177 17.4011 5.05664 16.9793 4.63477C16.5574 4.21289 15.8723 4.21289 15.4504 4.63477L10.8165 9.27202L6.17927 4.63814Z" fill="black"/>
</svg>
