<svg width="55" height="55" viewBox="0 0 55 55" fill="none" xmlns="http://www.w3.org/2000/svg">
<rect width="55" height="55" rx="27.5" fill="#808080"/>
<path d="M16.25 15.625C16.25 15.1277 16.4475 14.6508 16.7992 14.2992C17.1508 13.9475 17.6277 13.75 18.125 13.75H27.5V21.875C27.5 22.2854 27.5808 22.6917 27.7379 23.0709C27.8949 23.45 28.1251 23.7945 28.4153 24.0847C29.0013 24.6708 29.7962 25 30.625 25H38.75V39.375C38.75 39.8723 38.5525 40.3492 38.2008 40.7008C37.8492 41.0525 37.3723 41.25 36.875 41.25H18.125C17.6277 41.25 17.1508 41.0525 16.7992 40.7008C16.4475 40.3492 16.25 39.8723 16.25 39.375V15.625ZM38.705 23.75H30.625C30.1277 23.75 29.6508 23.5525 29.2992 23.2008C28.9475 22.8492 28.75 22.3723 28.75 21.875V13.795C29.0938 13.8725 29.4125 14.045 29.665 14.2987L38.2013 22.835C38.4524 23.0861 38.6271 23.4034 38.705 23.75ZM18.125 12.5C17.2962 12.5 16.5013 12.8292 15.9153 13.4153C15.3292 14.0013 15 14.7962 15 15.625V39.375C15 40.2038 15.3292 40.9987 15.9153 41.5847C16.5013 42.1708 17.2962 42.5 18.125 42.5H36.875C37.2854 42.5 37.6917 42.4192 38.0709 42.2621C38.45 42.1051 38.7945 41.8749 39.0847 41.5847C39.3749 41.2945 39.6051 40.95 39.7621 40.5709C39.9192 40.1917 40 39.7854 40 39.375V24.16C39.9998 23.3316 39.6707 22.5371 39.085 21.9513L30.5487 13.415C29.9629 12.8293 29.1684 12.5002 28.34 12.5H18.125Z" fill="white"/>
</svg>
