<svg width="55" height="55" viewBox="0 0 55 55" fill="none" xmlns="http://www.w3.org/2000/svg">
<rect width="55" height="55" rx="27.5" fill="#0E2E87"/>
<path d="M25.1033 34.0133L35.7633 23.3533L34.5833 22.1733L25.1033 31.6533L20.3533 26.9033L19.1733 28.0833L25.1033 34.0133ZM27.505 42.5C25.4317 42.5 23.4817 42.1067 21.655 41.32C19.8294 40.5322 18.2411 39.4633 16.89 38.1133C15.5389 36.7633 14.4694 35.1767 13.6817 33.3533C12.8939 31.53 12.5 29.5806 12.5 27.505C12.5 25.4294 12.8939 23.4794 13.6817 21.655C14.4683 19.8294 15.5356 18.2411 16.8833 16.89C18.2311 15.5389 19.8183 14.4694 21.645 13.6817C23.4717 12.8939 25.4217 12.5 27.495 12.5C29.5683 12.5 31.5183 12.8939 33.345 13.6817C35.1706 14.4683 36.7589 15.5361 38.11 16.885C39.4611 18.2339 40.5306 19.8211 41.3183 21.6467C42.1061 23.4722 42.5 25.4217 42.5 27.495C42.5 29.5683 42.1067 31.5183 41.32 33.345C40.5333 35.1717 39.4644 36.76 38.1133 38.11C36.7622 39.46 35.1756 40.5294 33.3533 41.3183C31.5311 42.1072 29.5817 42.5011 27.505 42.5ZM27.5 40.8333C31.2222 40.8333 34.375 39.5417 36.9583 36.9583C39.5417 34.375 40.8333 31.2222 40.8333 27.5C40.8333 23.7778 39.5417 20.625 36.9583 18.0417C34.375 15.4583 31.2222 14.1667 27.5 14.1667C23.7778 14.1667 20.625 15.4583 18.0417 18.0417C15.4583 20.625 14.1667 23.7778 14.1667 27.5C14.1667 31.2222 15.4583 34.375 18.0417 36.9583C20.625 39.5417 23.7778 40.8333 27.5 40.8333Z" fill="white"/>
</svg>
