<svg width="55" height="55" viewBox="0 0 55 55" fill="none" xmlns="http://www.w3.org/2000/svg">
<rect width="55" height="55" rx="27.5" fill="#808080"/>
<path fill-rule="evenodd" clip-rule="evenodd" d="M14.5277 42.4875H19.6624L19.6749 42.5C20.362 42.5 20.6119 42.4875 20.8867 42.425C21.1491 42.3626 21.3989 42.2626 21.6238 42.1252C21.8737 41.9752 22.0486 41.8003 22.5358 41.313L39.7765 24.0702C40.5386 23.308 41.0883 22.7582 41.5005 22.2709C41.9378 21.7586 42.1752 21.3588 42.3126 20.9465C42.5625 20.1843 42.5625 19.3721 42.3126 18.61C42.1752 18.1851 41.9378 17.7978 41.5005 17.2855C41.0883 16.7982 40.5136 16.211 39.7765 15.4863L39.5141 15.2239C38.777 14.4867 38.2023 13.9119 37.7151 13.4996C37.2029 13.0623 36.8031 12.8249 36.3908 12.6874C35.6287 12.4375 34.8167 12.4375 34.0546 12.6874C33.6298 12.8249 33.2425 13.0623 32.7303 13.4996C32.288 13.8644 31.7858 14.368 31.1686 14.9865L30.9275 15.2276L13.6869 32.4704C13.2246 32.9327 13.0247 33.1327 12.8748 33.3825C12.7374 33.6075 12.6374 33.8449 12.575 34.1072C12.5 34.3821 12.5 34.657 12.5 35.3192V40.4671C12.5 40.8544 12.5 41.1043 12.5125 41.2918C12.5375 41.5167 12.575 41.6666 12.6374 41.7915C12.7624 42.0289 12.9622 42.2289 13.1871 42.3413C13.3246 42.4163 13.4745 42.4538 13.6994 42.4663C13.8867 42.4788 14.1366 42.4788 14.5239 42.4788L14.5277 42.4875ZM34.3919 13.8744C34.6542 13.787 34.9166 13.7495 35.179 13.7495L35.1915 13.7245C35.4538 13.7245 35.7162 13.762 35.9785 13.8494C36.2284 13.9369 36.5032 14.1118 36.878 14.4242C37.3278 14.799 37.89 15.3613 38.6021 16.0735L38.8645 16.3359C39.5766 17.0481 40.1388 17.6104 40.5136 18.0602C40.8259 18.435 41.0133 18.7099 41.0883 18.9598C41.2507 19.4721 41.2507 20.0219 41.0883 20.5342C41.0008 20.784 40.8259 21.0589 40.5136 21.4338C40.1388 21.8836 39.6016 22.4209 38.8645 23.1581L38.306 23.7166L31.2349 16.6445L31.7733 16.1047C32.4854 15.3925 33.0476 14.8428 33.4974 14.4554C33.8722 14.1431 34.147 13.9556 34.3969 13.8807L34.3919 13.8744ZM30.3441 17.5229L14.4777 33.3913C14.0529 33.8161 13.9155 33.9536 13.853 34.066C13.7781 34.1785 13.7281 34.3034 13.7031 34.4284C13.6781 34.5533 13.6656 34.7532 13.6656 35.353V40.5008C13.6656 40.8382 13.6656 41.0631 13.6781 41.2255C13.878 41.2755 14.1029 41.2755 14.4402 41.263H19.5874C20.1496 41.263 20.3745 41.263 20.5119 41.2255C20.6493 41.2005 20.7743 41.1381 20.8867 41.0756C20.9991 41.0006 21.1616 40.8507 21.5613 40.4509L37.4277 24.5825L30.3566 17.5104L30.3441 17.5229Z" fill="white"/>
</svg>
